# 3ds Max Wavefront OBJ Exporter v0.97b - (c)2007 guruware
# File Created: 30.04.2015 11:54:56

#
# object Plane001
#

v  -206.1871 18.3033 780.9770
v  -196.3578 22.7226 808.3815
v  -179.9399 22.7226 802.9473
v  -195.2026 18.3033 767.0738
v  -229.0313 13.5821 747.0515
v  -233.5505 13.5821 764.1843
v  -285.4492 13.5821 750.0524
v  -284.3418 13.5821 769.7974
v  -319.5948 13.5821 756.1924
v  -318.2829 13.5821 779.5870
v  -341.6332 13.5821 744.7222
v  -355.5756 13.5821 770.7358
v  -373.0813 13.5821 709.6311
v  -387.0238 13.5821 735.6447
v  -437.8286 13.5821 698.3856
v  -435.4929 13.5821 718.4902
# 16 vertices

vn -0.0989 0.9943 -0.0399
vn -0.0475 0.9964 -0.0708
vn -0.0564 0.9963 -0.0656
vn -0.0959 0.9947 -0.0374
vn -0.0473 0.9988 -0.0104
vn -0.0807 0.9967 -0.0105
vn 0.0000 1.0000 -0.0000
# 7 vertex normals

vt 0.8143 0.8806 0.0000
vt 0.9038 0.9341 0.0000
vt 0.8737 0.9880 0.0000
vt 0.7581 0.9098 0.0000
vt 0.7106 0.7771 0.0000
vt 0.7738 0.7728 0.0000
vt 0.7592 0.5812 0.0000
vt 0.8277 0.5984 0.0000
vt 0.8037 0.4656 0.0000
vt 0.8850 0.4860 0.0000
vt 0.7784 0.3806 0.0000
vt 0.8790 0.3492 0.0000
vt 0.6764 0.2466 0.0000
vt 0.7771 0.2153 0.0000
vt 0.6806 0.0120 0.0000
vt 0.7496 0.0337 0.0000
# 16 texture coords

g Plane001
s 1
f 1/1/1 2/2/2 3/3/3 4/4/4 
f 1/1/1 4/4/4 5/5/5 6/6/6 
f 6/6/6 5/5/5 7/7/7 8/8/7 
f 8/8/7 7/7/7 9/9/7 10/10/7 
f 10/10/7 9/9/7 11/11/7 12/12/7 
f 12/12/7 11/11/7 13/13/7 14/14/7 
f 14/14/7 13/13/7 15/15/7 16/16/7 
# 7 polygons

