# 3ds Max Wavefront OBJ Exporter v0.97b - (c)2007 guruware
# File Created: 30.04.2015 11:55:07

#
# object Object001
#

v  -582.0072 13.5821 850.8134
v  -575.8875 13.5821 914.7044
v  -548.5217 13.5821 914.7044
v  -563.1527 13.5821 838.5576
v  -557.1863 13.5821 962.5115
v  -529.8206 13.5821 962.5115
v  -567.3652 13.5821 981.7097
v  -538.6517 13.5821 995.0990
v  -588.0057 13.5821 999.6500
v  -559.2922 13.5821 1013.0393
v  -563.6861 13.5821 1024.0000
v  -595.3679 13.5821 1024.0000
# 12 vertices

vn 0.0000 1.0000 -0.0000
# 1 vertex normals

vt 0.0814 0.9235 0.0000
vt 0.1136 0.5889 0.0000
vt 0.2577 0.5889 0.0000
vt 0.1807 0.9880 0.0000
vt 0.2121 0.3372 0.0000
vt 0.3561 0.3372 0.0000
vt 0.1585 0.2346 0.0000
vt 0.3096 0.1641 0.0000
vt 0.0499 0.1401 0.0000
vt 0.2010 0.0697 0.0000
vt 0.1779 0.0120 0.0000
vt 0.0111 0.0120 0.0000
# 12 texture coords

g Object001
s 1
f 1/1/1 2/2/1 3/3/1 4/4/1 
f 3/3/1 2/2/1 5/5/1 6/6/1 
f 6/6/1 5/5/1 7/7/1 8/8/1 
f 8/8/1 7/7/1 9/9/1 10/10/1 
f 11/11/1 10/10/1 9/9/1 12/12/1 
# 5 polygons

